<svg width="30" height="30" xmlns="http://www.w3.org/2000/svg">
 <g>
  <title>Layer 1</title>
  <ellipse ry="24.44416" rx="19.25904" id="svg_10" cy="292.58581" cx="21.37024" stroke="#000" fill="#fff"/>
  <ellipse ry="14.93289" rx="14.96644" id="svg_11" cy="14.89933" cx="14.93289" stroke="#000" fill="#fff"/>
  <path id="svg_16" d="m12.73772,24.3258c-0.74834,-0.50739 -0.65016,-0.81464 1.16928,-3.65887c0.91873,-1.43619 1.67041,-2.65299 1.67041,-2.704c0,-0.05101 -2.53693,-0.09274 -5.63764,-0.09274l-5.63764,0l0,-2.68984l0,-2.68984l5.68232,0c4.38139,0 5.63341,-0.08103 5.4687,-0.35393c-0.11749,-0.19466 -0.91894,-1.48638 -1.78099,-2.8705c-1.62499,-2.60908 -1.62448,-3.30878 0.00251,-3.52565c0.80969,-0.10793 13.41565,8.18479 13.84894,9.11041c-4.19893,3.30498 -9.21808,6.76445 -13.84153,9.81472c-0.24378,0 -0.66874,-0.1529 -0.94436,-0.33977l0,0z" stroke="#000" fill="#fff"/>
 </g>

</svg>